<svg width="196" height="82" fill="none" xmlns="http://www.w3.org/2000/svg"><path d="M22.837 1.072c4.736 0 8.875.939 12.417 2.816 3.54 1.877 6.272 4.523 8.192 7.936 1.962 3.37 2.944 7.275 2.944 11.712 0 4.395-.982 8.299-2.944 11.712-1.92 3.413-4.672 6.059-8.256 7.936C31.648 45.061 27.53 46 22.838 46H6.005V1.072h16.832zm-.703 35.456c4.138 0 7.36-1.13 9.663-3.392 2.305-2.261 3.457-5.461 3.457-9.6 0-4.139-1.152-7.36-3.456-9.664-2.304-2.304-5.526-3.456-9.664-3.456H16.95v26.112h5.184zM73.049 9.84v9.088h14.656v8.448H73.05v9.856h16.576V46h-27.52V1.072h27.52V9.84H73.05zm49.537 36.608c-3.285 0-6.229-.533-8.832-1.6-2.602-1.067-4.693-2.645-6.272-4.736-1.536-2.09-2.346-4.608-2.432-7.552h11.648c.171 1.664.747 2.944 1.728 3.84.982.853 2.262 1.28 3.84 1.28 1.622 0 2.902-.363 3.84-1.088.939-.768 1.408-1.813 1.408-3.136 0-1.11-.384-2.027-1.152-2.752-.725-.725-1.642-1.323-2.752-1.792-1.066-.47-2.602-1.003-4.608-1.6-2.901-.896-5.269-1.792-7.104-2.688-1.834-.896-3.413-2.219-4.736-3.968-1.322-1.75-1.984-4.032-1.984-6.848 0-4.181 1.515-7.445 4.544-9.792 3.03-2.39 6.976-3.584 11.84-3.584 4.95 0 8.939 1.195 11.968 3.584 3.03 2.347 4.651 5.632 4.864 9.856h-11.84c-.085-1.45-.618-2.581-1.6-3.392-.981-.853-2.24-1.28-3.776-1.28-1.322 0-2.389.363-3.2 1.088-.81.683-1.216 1.685-1.216 3.008 0 1.45.683 2.581 2.048 3.392 1.366.81 3.499 1.685 6.4 2.624 2.902.981 5.248 1.92 7.04 2.816 1.835.896 3.414 2.197 4.736 3.904 1.323 1.707 1.984 3.904 1.984 6.592 0 2.56-.661 4.885-1.984 6.976-1.28 2.09-3.157 3.755-5.632 4.992-2.474 1.237-5.397 1.856-8.768 1.856zM181.353 46l-15.104-19.84V46h-10.944V1.072h10.944v19.712l14.976-19.712h12.864l-17.408 22.016L194.729 46h-13.376z" fill="#083C6E"/><path d="M19.949 70.154c0 1.276-.44 2.34-1.32 3.19-.865.836-2.193 1.254-3.982 1.254h-2.948V81H9.697V65.666h4.95c1.73 0 3.043.418 3.938 1.254.91.836 1.364 1.914 1.364 3.234zm-5.302 2.794c1.115 0 1.936-.242 2.464-.726s.792-1.173.792-2.068c0-1.892-1.085-2.838-3.256-2.838h-2.948v5.632h2.948zm53.792 6.424h5.368V81h-7.37V65.666h2.002v13.706zm53.452-13.706v9.702c0 1.364.33 2.376.99 3.036.675.66 1.606.99 2.794.99 1.174 0 2.09-.33 2.75-.99.675-.66 1.012-1.672 1.012-3.036v-9.702h2.002v9.68c0 1.276-.256 2.354-.77 3.234a4.835 4.835 0 01-2.09 1.936c-.865.425-1.84.638-2.926.638-1.085 0-2.068-.213-2.948-.638-.865-.425-1.554-1.07-2.068-1.936-.498-.88-.748-1.958-.748-3.234v-9.68h2.002zm61.75 15.488c-1.012 0-1.921-.176-2.728-.528-.792-.367-1.415-.865-1.87-1.496-.455-.645-.689-1.386-.704-2.222h2.134c.073.719.367 1.327.88 1.826.528.484 1.291.726 2.288.726.953 0 1.701-.235 2.244-.704.557-.484.836-1.1.836-1.848 0-.587-.161-1.063-.484-1.43a3.094 3.094 0 00-1.21-.836 19.098 19.098 0 00-1.958-.616c-1.012-.264-1.826-.528-2.442-.792a4.058 4.058 0 01-1.562-1.232c-.425-.572-.638-1.335-.638-2.288 0-.836.213-1.577.638-2.222.425-.645 1.019-1.144 1.782-1.496.777-.352 1.665-.528 2.662-.528 1.437 0 2.611.36 3.52 1.078.924.719 1.445 1.672 1.562 2.86h-2.2c-.073-.587-.381-1.1-.924-1.54-.543-.455-1.261-.682-2.156-.682-.836 0-1.518.22-2.046.66-.528.425-.792 1.027-.792 1.804 0 .557.154 1.012.462 1.364.323.352.711.623 1.166.814a25.48 25.48 0 001.958.616c1.012.279 1.826.557 2.442.836a3.943 3.943 0 011.584 1.254c.44.557.66 1.32.66 2.288 0 .748-.198 1.452-.594 2.112-.396.66-.983 1.195-1.76 1.606-.777.41-1.694.616-2.75.616z" fill="#373737"/><path fill="#083C6E" d="M0 19h23v9H0z"/></svg>