<svg width="132" height="56" fill="none" xmlns="http://www.w3.org/2000/svg"><path d="M15.757 1.364c3.186 0 5.97.64 8.353 1.918 2.382 1.28 4.219 3.082 5.51 5.407 1.32 2.297 1.981 4.957 1.981 7.98 0 2.995-.66 5.655-1.98 7.98-1.292 2.326-3.143 4.128-5.555 5.408-2.382 1.279-5.152 1.918-8.31 1.918H4.435V1.364h11.323zm-.474 24.157c2.784 0 4.952-.77 6.502-2.31 1.55-1.541 2.325-3.722 2.325-6.542s-.776-5.014-2.325-6.584c-1.55-1.57-3.718-2.355-6.502-2.355h-3.487v17.791h3.487zM49.536 7.338v6.192h9.86v5.756h-9.86V26h11.151v5.974H42.173V1.364h18.514v5.974H49.536zM82.86 32.28c-2.21 0-4.19-.363-5.94-1.09-1.752-.726-3.158-1.802-4.22-3.227-1.033-1.424-1.579-3.14-1.636-5.145H78.9c.115 1.134.502 2.006 1.162 2.616.66.582 1.522.872 2.584.872 1.09 0 1.951-.247 2.583-.74.631-.524.947-1.236.947-2.138 0-.755-.258-1.38-.775-1.875-.488-.494-1.105-.9-1.851-1.22-.718-.32-1.751-.684-3.1-1.09-1.952-.611-3.545-1.222-4.78-1.832-1.234-.61-2.296-1.512-3.185-2.704-.89-1.192-1.335-2.747-1.335-4.666 0-2.849 1.019-5.073 3.057-6.672C76.245 1.741 78.9.927 82.172.927c3.33 0 6.013.814 8.051 2.442 2.038 1.6 3.129 3.838 3.272 6.716H85.53c-.057-.989-.416-1.759-1.076-2.311-.66-.582-1.507-.872-2.54-.872-.89 0-1.608.247-2.153.74-.545.466-.818 1.15-.818 2.05 0 .989.46 1.76 1.378 2.312.918.552 2.353 1.148 4.305 1.787 1.952.669 3.53 1.309 4.736 1.92 1.234.61 2.296 1.496 3.186 2.66.89 1.162 1.335 2.66 1.335 4.49 0 1.745-.445 3.33-1.335 4.754-.861 1.424-2.124 2.558-3.789 3.4-1.665.844-3.63 1.266-5.898 1.266zm39.535-.305l-10.161-13.518v13.518h-7.362V1.364h7.362v13.43l10.075-13.43h8.654l-11.711 15 12.141 15.611h-8.998zM13.814 48.433c0 .869-.296 1.593-.888 2.173-.582.57-1.475.855-2.68.855H8.265v4.362H6.917V45.375h3.33c1.164 0 2.047.285 2.649.854.612.57.918 1.304.918 2.204zm-3.567 1.903c.75 0 1.302-.165 1.657-.494.356-.33.533-.8.533-1.41 0-1.288-.73-1.933-2.19-1.933H8.264v3.837h1.983zm36.187 4.377h3.612v1.11h-4.958V45.375h1.346v9.338zm35.959-9.338v6.61c0 .93.222 1.62.666 2.069.454.45 1.08.674 1.88.674.789 0 1.406-.224 1.85-.674.454-.45.68-1.14.68-2.069v-6.61h1.347v6.595c0 .87-.172 1.604-.518 2.204a3.27 3.27 0 01-1.406 1.319c-.582.29-1.238.434-1.968.434s-1.391-.144-1.983-.434a3.29 3.29 0 01-1.392-1.32c-.335-.599-.503-1.333-.503-2.203v-6.595h1.347zm41.541 10.553c-.681 0-1.293-.12-1.835-.36-.533-.25-.952-.59-1.258-1.02a2.67 2.67 0 01-.474-1.514h1.436c.049.49.246.905.592 1.245.355.33.868.494 1.539.494.641 0 1.144-.16 1.509-.48.375-.33.563-.749.563-1.258 0-.4-.109-.725-.326-.975a2.077 2.077 0 00-.814-.57c-.325-.13-.764-.27-1.317-.42-.681-.18-1.228-.359-1.643-.539a2.739 2.739 0 01-1.051-.84c-.286-.389-.429-.909-.429-1.558 0-.57.143-1.074.429-1.514a2.82 2.82 0 011.199-1.02c.523-.24 1.12-.36 1.791-.36.967 0 1.756.246 2.368.735.622.49.972 1.14 1.051 1.949h-1.48c-.049-.4-.257-.75-.622-1.05-.365-.31-.848-.464-1.45-.464-.563 0-1.021.15-1.377.45-.355.29-.532.7-.532 1.229 0 .38.103.69.31.93.218.24.479.424.785.554.316.12.755.26 1.317.42.681.19 1.228.38 1.643.57.414.179.769.464 1.065.854.296.38.444.899.444 1.559 0 .51-.133.989-.399 1.438-.267.45-.661.815-1.184 1.095-.523.28-1.14.42-1.85.42z" fill="#fff"/><path d="M.393 13.579h15.473v6.132H.393v-6.132z" fill="#fff"/></svg>